HIERARCHY
ROOT joint_0
{
	OFFSET 0.000000 0.000000 0.000000
	CHANNELS 6 Xposition Yposition Zposition Zrotation Yrotation Xrotation 
	JOINT joint_1
	{
		OFFSET 0.587158 0.057678 95.682007
		CHANNELS 3 Zrotation Yrotation Xrotation
		JOINT joint_2
		{
			OFFSET -7.116699 -0.219910 87.157959
			CHANNELS 3 Zrotation Yrotation Xrotation
			JOINT joint_3
			{
				OFFSET -5.892822 -0.290222 87.151001
				CHANNELS 3 Zrotation Yrotation Xrotation
				JOINT joint_4
				{
					OFFSET 5.544678 -0.099609 123.768066
					CHANNELS 3 Zrotation Yrotation Xrotation
					JOINT joint_5
					{
						OFFSET 41.981201 4.519775 84.257935
						CHANNELS 3 Zrotation Yrotation Xrotation
						End Site
						{
							OFFSET 0.000000 0.000000 0.000000
						}
					}
				}
				JOINT joint_6
				{
					OFFSET 3.940918 -26.976501 69.308105
					CHANNELS 3 Zrotation Yrotation Xrotation
					JOINT joint_7
					{
						OFFSET 4.776123 -152.592468 -16.842041
						CHANNELS 3 Zrotation Yrotation Xrotation
						JOINT joint_8
						{
							OFFSET 54.421875 -30.424072 -248.864014
							CHANNELS 3 Zrotation Yrotation Xrotation
							JOINT joint_9
							{
								OFFSET 42.120117 -33.387878 -236.524963
								CHANNELS 3 Zrotation Yrotation Xrotation
								End Site
								{
									OFFSET 0.000000 0.000000 0.000000
								}
							}
						}
					}
				}
				JOINT joint_10
				{
					OFFSET 2.312012 26.904114 69.425049
					CHANNELS 3 Zrotation Yrotation Xrotation
					JOINT joint_11
					{
						OFFSET 0.971436 152.197815 -20.626953
						CHANNELS 3 Zrotation Yrotation Xrotation
						JOINT joint_12
						{
							OFFSET 49.954102 28.991455 -249.970093
							CHANNELS 3 Zrotation Yrotation Xrotation
							JOINT joint_13
							{
								OFFSET 48.146973 19.598389 -236.919922
								CHANNELS 3 Zrotation Yrotation Xrotation
								End Site
								{
									OFFSET 0.000000 0.000000 0.000000
								}
							}
						}
					}
				}
			}
		}
	}
	JOINT joint_14
	{
		OFFSET 16.305664 -89.442932 -108.224976
		CHANNELS 3 Zrotation Yrotation Xrotation
		JOINT joint_15
		{
			OFFSET -22.282471 13.437134 -412.904968
			CHANNELS 3 Zrotation Yrotation Xrotation
			JOINT joint_16
			{
				OFFSET -45.426025 14.484802 -445.892029
				CHANNELS 3 Zrotation Yrotation Xrotation
				JOINT joint_17
				{
					OFFSET 173.389404 -9.944031 -76.473001
					CHANNELS 3 Zrotation Yrotation Xrotation
					End Site
					{
						OFFSET 0.000000 0.000000 0.000000
					}
				}
			}
		}
	}
	JOINT joint_18
	{
		OFFSET 13.392822 89.408875 -108.653992
		CHANNELS 3 Zrotation Yrotation Xrotation
		JOINT joint_19
		{
			OFFSET -29.032959 24.483521 -411.977966
			CHANNELS 3 Zrotation Yrotation Xrotation
			JOINT joint_20
			{
				OFFSET -30.530029 28.986328 -446.453018
				CHANNELS 3 Zrotation Yrotation Xrotation
				JOINT joint_21
				{
					OFFSET 170.330078 33.400757 -76.698997
					CHANNELS 3 Zrotation Yrotation Xrotation
					End Site
					{
						OFFSET 0.000000 0.000000 0.000000
					}
				}
			}
		}
	}
}
MOTION
Frames: 15
Frame Time: 0.016667
-2413.756348 1022.485779 1059.326050 -5.476994 -2.801607 -0.029277 0.021649 2.230554 0.721861 -0.065094 -0.505321 -0.182736 -0.042565 0.512151 0.108910 -0.114641 1.902476 0.038345 0.000000 0.000000 0.000000 -2.366556 1.350791 0.194580 0.040269 1.092833 0.379623 0.671398 -3.346283 0.858020 0.000000 0.000000 0.000000 -1.247429 0.977309 -1.587832 0.452132 1.187710 1.378951 -0.134541 -1.395304 -0.078821 0.000000 0.000000 0.000000 -0.948840 -0.867714 -2.437532 -0.912664 6.132605 0.764128 -1.139942 -2.905364 -0.667502 0.000000 0.000000 0.000000 1.515691 0.890127 -1.029170 1.505218 3.067926 0.889848 1.173897 -1.868801 0.893547 0.000000 0.000000 0.000000 
-2413.575684 1022.501038 1059.457031 -5.439335 -2.764525 -0.027363 0.110916 2.502354 0.627319 0.032975 -0.520410 -0.137034 0.049775 0.521755 0.073198 -0.125359 1.766071 0.075159 0.000000 0.000000 0.000000 -3.107504 1.483060 -0.117842 0.069080 1.155023 0.510330 0.876973 -3.883120 1.486991 0.000000 0.000000 0.000000 -1.117061 0.791162 -1.819829 0.458766 0.982562 1.544691 -0.122663 -1.299545 -0.060076 0.000000 0.000000 0.000000 -0.950821 -0.856619 -2.445165 -0.917378 6.066673 0.759910 -1.141070 -2.909344 -0.668240 0.000000 0.000000 0.000000 1.508338 0.794778 -1.057241 1.505430 3.177514 0.926861 1.167117 -1.894588 0.895540 0.000000 0.000000 0.000000 
-2413.154053 1022.560974 1059.630005 -5.382368 -2.691218 -0.021881 0.247251 2.884509 0.508296 0.180014 -0.542511 -0.073647 0.188816 0.534842 0.022823 -0.140108 1.528622 0.129680 0.000000 0.000000 0.000000 -3.885440 1.706948 -0.577602 0.102069 1.310283 0.661538 1.168512 -4.664996 2.342609 0.000000 0.000000 0.000000 -0.913689 0.550253 -2.085039 0.464425 0.712606 1.732050 -0.123449 -1.257731 -0.082529 0.000000 0.000000 0.000000 -0.957265 -0.849950 -2.464853 -0.928494 5.964237 0.760275 -1.145506 -2.902404 -0.669821 0.000000 0.000000 0.000000 1.496411 0.693540 -1.107514 1.495665 3.245597 0.986583 1.155760 -1.910599 0.893580 0.000000 0.000000 0.000000 
-2411.444824 1022.529053 1059.832031 -5.196035 -2.328118 -0.000805 0.394125 3.060137 0.412222 0.334783 -0.545488 -0.028881 0.338105 0.536518 -0.007117 -0.182971 1.009710 0.266885 0.000000 0.000000 0.000000 -4.332561 2.116058 -1.059691 0.121875 1.690341 0.806865 1.423699 -5.526305 2.953981 0.000000 0.000000 0.000000 -0.575604 0.504535 -1.921196 0.461627 0.623410 1.655638 -0.250355 -1.887926 -0.458828 0.000000 0.000000 0.000000 -1.011756 -1.040537 -2.527456 -0.988345 5.788927 0.802975 -1.186036 -2.816642 -0.682806 0.000000 0.000000 0.000000 1.428092 0.383735 -1.118778 1.448279 3.226105 0.925740 1.106800 -1.924680 0.874444 0.000000 0.000000 0.000000 
-2407.998291 1022.414856 1059.927979 -4.821414 -1.547964 0.097688 0.543552 2.945291 0.364551 0.487444 -0.511894 -0.029886 0.490915 0.527307 -0.001506 -0.275379 -0.034589 0.555336 0.000000 0.000000 0.000000 -4.208238 2.905585 -1.573996 0.129554 2.520293 1.012846 1.576110 -6.558744 2.963109 0.000000 0.000000 0.000000 0.038303 0.768999 -1.035888 0.421057 0.808568 1.051200 -0.523710 -3.438184 -1.211629 0.000000 0.000000 0.000000 -1.123495 -1.288499 -2.711146 -1.130715 5.071064 0.904124 -1.264765 -2.470302 -0.697830 0.000000 0.000000 0.000000 1.271792 -0.178171 -1.130451 1.327410 2.982911 0.691743 0.992957 -1.910007 0.820662 0.000000 0.000000 0.000000 
-2403.262939 1022.207947 1060.052979 -4.309778 -0.471649 0.223663 0.693752 2.605744 0.342696 0.638269 -0.439804 -0.059926 0.644785 0.494265 0.017150 -0.388092 -1.388415 0.918562 0.000000 0.000000 0.000000 -3.718277 3.890408 -2.029802 0.127607 3.585499 1.223534 1.671663 -7.659091 2.700359 0.000000 0.000000 0.000000 0.853226 1.211659 0.189519 0.404594 1.149217 0.383542 -0.944989 -5.599914 -2.458060 0.000000 0.000000 0.000000 -1.285752 -1.741021 -2.935302 -1.323775 4.277850 1.042696 -1.384622 -2.020743 -0.724953 0.000000 0.000000 0.000000 1.058021 -0.961400 -1.101640 1.169333 2.655292 0.333047 0.842389 -1.868451 0.745040 0.000000 0.000000 0.000000 
-2397.539551 1021.742065 1060.598999 -3.716497 0.780879 0.207363 0.822587 1.968153 0.345333 0.766310 -0.351382 -0.101013 0.775967 0.411385 0.027827 -0.476461 -2.520082 1.213840 0.000000 0.000000 0.000000 -3.187331 4.592577 -2.296989 0.084312 4.362677 1.306634 1.762516 -8.422970 2.756519 0.000000 0.000000 0.000000 1.545367 1.712381 1.236271 0.530608 1.579265 0.401529 -1.585427 -8.158813 -4.589571 0.000000 0.000000 0.000000 -1.519624 -3.015798 -2.986729 -1.514327 4.778089 1.210951 -1.571874 -1.949250 -0.802953 0.000000 0.000000 0.000000 0.824446 -2.054451 -0.833721 1.053788 2.610391 -0.147113 0.703762 -1.861209 0.681287 0.000000 0.000000 0.000000 
-2390.444092 1020.489136 1061.762939 -2.987847 2.546637 0.030457 0.907883 0.483477 0.061503 0.897701 -0.147499 0.017105 0.897564 0.220286 0.010195 -0.530485 -3.186499 1.396190 0.000000 0.000000 0.000000 -2.700164 4.746832 -2.251513 -0.052924 4.573886 1.197356 1.735531 -7.896093 3.271534 0.000000 0.000000 0.000000 1.987439 2.412335 1.848004 0.939448 2.261432 1.776548 -2.543196 -11.173998 -8.068506 0.000000 0.000000 0.000000 -1.862765 -5.618549 -2.765025 -1.708726 6.900652 1.376005 -1.862185 -2.349223 -0.952039 0.000000 0.000000 0.000000 0.540982 -3.896960 -0.232036 1.003503 2.991604 -0.833455 0.587639 -1.858593 0.628359 0.000000 0.000000 0.000000 
-2382.360596 1018.977417 1063.348999 -2.172936 4.511254 -0.219138 0.946909 -1.303690 -0.311565 1.007801 0.072276 0.161553 0.995426 -0.028284 -0.017296 -0.570312 -3.636768 1.530840 0.000000 0.000000 0.000000 -2.165332 4.624662 -2.154917 -0.231162 4.511601 0.970612 1.749115 -7.119479 4.192754 0.000000 0.000000 0.000000 2.259794 3.137195 2.198040 1.487933 2.984114 3.941131 -3.681292 -14.595933 -12.294170 0.000000 0.000000 0.000000 -2.275974 -9.039675 -2.454048 -1.903610 10.249035 1.602465 -2.242861 -2.877773 -1.144823 0.000000 0.000000 0.000000 0.212761 -6.083732 0.537518 0.986522 3.667268 -1.617059 0.485201 -1.808660 0.572084 0.000000 0.000000 0.000000 
-2374.739014 1018.623108 1065.161987 -1.624183 5.699265 -0.517556 0.979643 -2.127945 -0.180997 1.064917 0.144441 0.046252 1.060415 -0.167901 -0.032651 -0.597648 -4.031446 1.633387 0.000000 0.000000 0.000000 -1.648000 4.556361 -2.530537 -0.396228 4.519132 0.754963 2.187389 -8.752314 5.668187 0.000000 0.000000 0.000000 2.295296 3.357597 2.556173 1.924127 3.216293 5.421282 -4.674109 -18.226783 -16.030344 0.000000 0.000000 0.000000 -2.622767 -12.602955 -2.360319 -1.947857 15.252921 2.048052 -2.608703 -3.280992 -1.317458 0.000000 0.000000 0.000000 -0.034176 -7.539110 1.188691 1.052277 4.585726 -2.187760 0.466584 -1.805371 0.561854 0.000000 0.000000 0.000000 
-2368.506348 1020.542847 1067.452026 -1.591119 5.619976 -0.686234 1.034728 -1.371235 0.358593 1.092015 0.083075 -0.209182 1.110955 -0.080954 -0.026750 -0.598482 -4.466657 1.680513 0.000000 0.000000 0.000000 -1.121481 4.857454 -3.498813 -0.751850 4.928621 0.252071 3.284149 -15.316715 7.922537 0.000000 0.000000 0.000000 1.963416 2.805550 2.996056 2.266608 2.740082 5.445852 -5.358012 -22.517968 -18.789790 0.000000 0.000000 0.000000 -2.769250 -16.463270 -2.931378 -1.554237 23.063660 2.878107 -2.784598 -2.621202 -1.331059 0.000000 0.000000 0.000000 -0.102844 -7.811833 1.286125 1.280759 5.865881 -2.300892 0.636841 -1.800642 0.633895 0.000000 0.000000 0.000000 
-2362.734131 1023.621094 1069.969971 -1.659700 4.784409 -0.474802 1.095794 0.290252 0.459602 1.020017 -0.102700 -0.198441 1.033073 0.121311 -0.006434 -0.583112 -4.838925 1.683288 0.000000 0.000000 0.000000 -0.564447 5.163612 -4.331661 -1.521859 5.362716 -0.772714 4.418400 -24.337804 10.386712 0.000000 0.000000 0.000000 1.369679 1.730828 3.350400 2.681780 1.801196 4.751417 -5.757387 -27.032079 -20.964029 0.000000 0.000000 0.000000 -2.890906 -20.413082 -4.213108 -0.801916 32.058119 3.931478 -2.758328 -0.192545 -1.130019 0.000000 0.000000 0.000000 -0.087037 -7.399240 0.686085 1.547204 7.373434 -2.062739 0.906415 -1.628830 0.715073 0.000000 0.000000 0.000000 
-2356.095215 1025.923462 1071.772949 -1.522910 3.897080 -0.100752 1.169986 1.728669 0.198855 0.805141 -0.326102 -0.034255 0.775702 0.261128 0.007359 -0.586574 -4.963601 1.700770 0.000000 0.000000 0.000000 -0.029202 4.864158 -4.781770 -2.256160 5.170940 -1.608236 5.090879 -31.122954 12.175538 0.000000 0.000000 0.000000 0.812123 0.468762 3.655685 3.104480 0.672568 3.954767 -5.962267 -30.410078 -22.897492 0.000000 0.000000 0.000000 -3.236637 -23.731336 -5.529148 -0.131932 39.330297 4.772937 -2.803773 2.271514 -0.936318 0.000000 0.000000 0.000000 -0.069355 -6.790752 -0.055985 1.706267 8.688966 -1.801071 1.111199 -1.484919 0.771383 0.000000 0.000000 0.000000 
-2348.004150 1026.700562 1072.264038 -1.430375 3.301912 0.204205 1.199353 2.114384 -0.095306 0.589636 -0.368364 0.042062 0.530926 0.259932 -0.003369 -0.645680 -4.563891 1.783586 0.000000 0.000000 0.000000 0.494313 3.738341 -5.023241 -2.527606 4.118523 -1.771889 5.406306 -34.368956 13.094077 0.000000 0.000000 0.000000 0.410074 -0.886619 4.024086 3.530394 -0.571803 3.200222 -6.100809 -32.428296 -25.165088 0.000000 0.000000 0.000000 -3.899205 -26.863140 -6.439555 0.302414 45.311314 5.227553 -3.313564 2.790124 -1.029890 0.000000 0.000000 0.000000 -0.036320 -6.178593 -0.510578 1.813514 9.649570 -1.750389 1.261713 -1.678130 0.867259 0.000000 0.000000 0.000000 
-2339.045898 1026.702637 1072.040039 -1.399154 2.766552 0.506120 1.171071 2.035130 -0.436133 0.373830 -0.319903 0.090774 0.305661 0.201127 -0.024957 -0.728522 -3.910013 1.887260 0.000000 0.000000 0.000000 1.029893 2.092940 -4.873331 -2.519495 2.509555 -1.805347 5.573968 -35.686751 13.484150 0.000000 0.000000 0.000000 0.013729 -2.432976 4.146300 3.995675 -1.997839 2.558627 -6.103513 -33.360126 -27.315117 0.000000 0.000000 0.000000 -4.677379 -29.810012 -7.125634 0.647240 50.348529 5.405150 -4.079084 2.206731 -1.280857 0.000000 0.000000 0.000000 0.090845 -5.452672 -0.897537 1.883441 10.420683 -1.738865 1.382314 -2.025579 0.978346 0.000000 0.000000 0.000000 
